<?xml version="1.0" encoding="utf-8"?>
<!-- Generator: Adobe Illustrator 26.4.1, SVG Export Plug-In . SVG Version: 6.00 Build 0)  -->
<svg version="1.1" id="Layer_2_00000050624023829787337660000014004365171798288546_"
	 xmlns="http://www.w3.org/2000/svg" xmlns:xlink="http://www.w3.org/1999/xlink" x="0px" y="0px" viewBox="0 0 236.3 235"
	 style="enable-background:new 0 0 236.3 235;" xml:space="preserve">
<style type="text/css">
	.st0{enable-background:new    ;}
</style>
<path d="M118.8,235C54.1,235,1.3,182.3,1.3,117.5C1.3,52.7,54.1,0,118.8,0s117.5,52.7,117.5,117.5C236.3,182.3,183.6,235,118.8,235z
	 M118.8,14C61.8,14,15.3,60.4,15.3,117.5S61.8,221,118.8,221c57.1,0,103.5-46.4,103.5-103.5S175.9,14,118.8,14z"/>
<g class="st0">
	<path d="M79.5,62.2h38.1c16.5,0,29.5,4.8,39,14.2c9.3,9.5,14,22.6,14,39.1c0,16.6-4.6,29.7-14,39.2c-9.5,9.5-22.5,14.2-39,14.2
		H79.5V62.2z M95.5,154.9h21.9c11.7,0,20.7-3.4,26.9-10.2c6.2-6.8,9.4-16.5,9.4-29.1c0-12.6-3.1-22.3-9.4-29.1
		c-6.3-6.8-15.2-10.2-26.9-10.2H95.5V154.9z"/>
</g>
</svg>
