<svg version="1.1" id="Layer_1" xmlns="http://www.w3.org/2000/svg" xmlns:xlink="http://www.w3.org/1999/xlink" x="0px" y="0px"
	 viewBox="0 0 157.8 34.6" style="enable-background:new 0 0 157.8 34.6;" xml:space="preserve">
<g>
	<path d="M0,0h7c2.8,0,5,0.8,6.5,2.3c1.5,1.5,2.3,3.6,2.3,6.3c0,2.7-0.8,4.8-2.3,6.3C12,16.3,9.8,17.1,7,17.1H0V0z M4.1,13.7h2.9
		c1.5,0,2.6-0.4,3.4-1.3s1.2-2.1,1.2-3.8c0-1.7-0.4-3-1.2-3.8C9.5,3.9,8.4,3.4,6.9,3.4H4.1V13.7z"/>
	<path d="M24.1,14.3h3.7v2.8H16.9v-2.4l4.4-5.4c0.6-0.7,1.1-1.3,1.5-1.8c-0.4,0-1.2,0-2.5,0H17V4.7h10.6v2.4l-4.4,5.4
		c-0.6,0.7-1.1,1.3-1.5,1.8C22,14.3,22.8,14.3,24.1,14.3z"/>
	<path d="M41.2,11.3V12H32c0.1,0.8,0.4,1.5,0.9,1.9c0.5,0.4,1.1,0.7,1.9,0.7c1.2,0,2-0.5,2.5-1.4h3.6c-0.3,1.3-1,2.3-2.1,3
		c-1.1,0.7-2.4,1.1-3.9,1.1c-1.9,0-3.5-0.6-4.7-1.8c-1.2-1.2-1.8-2.8-1.8-4.7c0-2,0.6-3.5,1.8-4.7c1.2-1.2,2.7-1.8,4.6-1.8
		c1.9,0,3.5,0.6,4.7,1.8C40.6,7.5,41.2,9.2,41.2,11.3z M34.7,7.2c-1.5,0-2.4,0.8-2.7,2.4h5.5c-0.1-0.8-0.4-1.4-0.9-1.8
		C36.1,7.4,35.5,7.2,34.7,7.2z"/>
	<path d="M57.8,4.4c1.4,0,2.4,0.4,3.2,1.2c0.8,0.8,1.2,1.9,1.2,3.4v8h-3.7V9.7c0-1.4-0.6-2.1-1.8-2.1c-0.7,0-1.2,0.2-1.6,0.7
		c-0.4,0.4-0.6,1.1-0.6,2v6.8h-3.7V9.7c0-1.4-0.6-2.1-1.8-2.1c-0.7,0-1.2,0.2-1.6,0.7c-0.4,0.4-0.6,1.1-0.6,2v6.8h-3.7V4.7h3.6v1.8
		c0.9-1.4,2.1-2,3.5-2c1.9,0,3.1,0.7,3.8,2.2C54.9,5.2,56.2,4.4,57.8,4.4z"/>
	<path d="M71.4,6.5L72,4.7h3.9l-4.5,12.9c-0.6,1.6-1.3,2.7-2.1,3.3c-0.9,0.6-2.2,0.9-4,0.9c-0.3,0-0.8,0-1.5,0v-2.9h1.2
		c1.2,0,1.9-0.6,1.9-1.7c0-0.5-0.2-1.3-0.6-2.4L62.6,4.7h4l0.6,1.8c0.8,2.7,1.5,5.3,2.1,7.8C70,11.6,70.6,9.1,71.4,6.5z"/>
	<path d="M82.2,17.4c-1.9,0-3.5-0.6-4.6-1.8c-1.2-1.2-1.7-2.8-1.7-4.7c0-2,0.6-3.6,1.7-4.7c1.2-1.2,2.7-1.8,4.6-1.8
		c1.7,0,3.1,0.4,4.2,1.3c1.1,0.9,1.7,2.1,1.9,3.6h-3.7c-0.2-1.3-1-1.9-2.3-1.9c-1.7,0-2.6,1.1-2.6,3.4c0,2.3,0.9,3.4,2.6,3.4
		c1.4,0,2.2-0.7,2.4-2.1h3.7c-0.1,1.6-0.7,2.8-1.8,3.8C85.4,16.9,84,17.4,82.2,17.4z"/>
	<path d="M97.3,4.4c1.3,0,2.4,0.4,3.1,1.2c0.8,0.8,1.2,1.9,1.2,3.4v8.1h-3.7V9.7c0-1.4-0.7-2.1-2-2.1c-0.7,0-1.2,0.2-1.7,0.7
		c-0.4,0.4-0.7,1.1-0.7,1.9v6.9h-3.7V0h3.7v6.3C94.4,5.1,95.7,4.4,97.3,4.4z"/>
	<path d="M117.3,17.1h-4.1V0h4.1V17.1z"/>
	<path d="M127.3,6.6l0.6-1.9h3.8l-4.4,12.4h-4.5l-4.4-12.4h4l0.6,1.9c0.3,1.2,0.7,2.3,1,3.5c0.3,1.1,0.6,2,0.7,2.6s0.3,1,0.3,1.2
		c0-0.2,0.2-0.6,0.3-1.2c0.2-0.6,0.4-1.5,0.7-2.6S127,7.8,127.3,6.6z"/>
	<path d="M144.2,17.1h-3.8c-0.2-0.4-0.3-0.8-0.3-1.4c-0.8,1.1-2.2,1.7-4,1.7c-1.4,0-2.5-0.3-3.3-1c-0.8-0.7-1.2-1.6-1.2-2.8
		c0-2.3,1.6-3.6,4.8-3.9l1.9-0.2c1.1-0.1,1.6-0.5,1.6-1.2c0-0.8-0.6-1.2-1.9-1.2c-0.8,0-1.3,0.1-1.6,0.3c-0.3,0.2-0.5,0.7-0.6,1.3
		h-3.7c0.2-2.9,2.2-4.3,5.9-4.3c3.7,0,5.5,1.3,5.5,3.8v6.6C143.7,15.8,143.9,16.6,144.2,17.1z M137.3,14.9c0.8,0,1.5-0.2,2-0.7
		c0.5-0.4,0.7-1.1,0.7-2v-0.9c-0.2,0.2-0.6,0.4-1.2,0.5l-1.5,0.2c-1.2,0.1-1.8,0.6-1.8,1.5c0,0.4,0.2,0.8,0.5,1
		C136.3,14.7,136.8,14.9,137.3,14.9z"/>
	<path d="M153.3,4.4c1.3,0,2.4,0.4,3.1,1.2c0.8,0.8,1.2,1.9,1.2,3.4v8.1h-3.7V9.7c0-1.4-0.7-2.1-2-2.1c-0.7,0-1.2,0.2-1.7,0.7
		c-0.4,0.4-0.7,1.1-0.7,1.9v6.9h-3.7V4.7h3.6v1.8C150.3,5.1,151.6,4.4,153.3,4.4z"/>
</g>
<g>
	<path d="M3.2,34.8c-0.9,0-1.6-0.2-2.2-0.6c-0.5-0.4-0.8-1-0.8-1.8h1c0,1,0.7,1.6,1.9,1.6c0.5,0,0.9-0.1,1.2-0.3
		c0.3-0.2,0.4-0.5,0.4-0.9c0-0.3-0.1-0.5-0.3-0.7s-0.6-0.3-1.2-0.4l-0.6-0.1C1.9,31.3,1.4,31,1,30.7c-0.4-0.3-0.5-0.8-0.5-1.4
		c0-0.6,0.2-1,0.7-1.4c0.4-0.3,1-0.5,1.8-0.5c0.9,0,1.6,0.2,2.1,0.6s0.7,0.9,0.7,1.6h-1c0-0.5-0.2-0.8-0.4-1C4,28.5,3.5,28.4,3,28.4
		c-0.5,0-0.8,0.1-1,0.3S1.5,29,1.5,29.3c0,0.3,0.1,0.6,0.3,0.7c0.2,0.2,0.6,0.3,1.2,0.5l0.6,0.1c0.8,0.2,1.4,0.4,1.7,0.7
		c0.3,0.3,0.5,0.8,0.5,1.3c0,0.6-0.2,1.2-0.7,1.5C4.7,34.6,4.1,34.8,3.2,34.8z"/>
	<path d="M13.1,34.8c-1,0-1.9-0.3-2.5-1c-0.6-0.7-0.9-1.5-0.9-2.6c0-1.1,0.3-2,0.9-2.6c0.6-0.7,1.4-1,2.5-1c1,0,1.8,0.3,2.5,1
		c0.6,0.7,0.9,1.6,0.9,2.6s-0.3,2-0.9,2.6C15,34.4,14.1,34.8,13.1,34.8z M13.1,33.8c0.7,0,1.3-0.2,1.7-0.7c0.4-0.5,0.6-1.1,0.6-2
		s-0.2-1.5-0.6-2c-0.4-0.5-1-0.7-1.7-0.7c-0.7,0-1.3,0.2-1.7,0.7c-0.4,0.5-0.6,1.2-0.6,2c0,0.8,0.2,1.5,0.6,2
		C11.8,33.6,12.4,33.8,13.1,33.8z"/>
	<path d="M25.4,27.6v0.9h-3.7v2h3.3v0.9h-3.3v3.1h-1v-7H25.4z"/>
	<path d="M29,27.6h5.7v0.9h-2.3v6h-1.1v-6H29V27.6z"/>
	<path d="M45.5,30.8l0.9-3.2h1.1l-2,7h-1.2l-0.9-3.3c-0.2-0.6-0.4-1.4-0.6-2.4c-0.2,1-0.4,1.8-0.6,2.4l-0.9,3.3h-1.2l-2-7h1.1
		l0.9,3.2c0.3,1.1,0.5,2,0.6,2.6c0.4-1.6,0.6-2.4,0.6-2.6l0.8-3.1h1.1l0.8,3.1c0,0.2,0.3,1,0.6,2.6C45,32.8,45.2,31.9,45.5,30.8z"/>
	<path d="M56.7,34.6h-1.1l-0.7-1.8h-3.1L51,34.6H50l2.7-7h1.2L56.7,34.6z M52.2,31.5l-0.1,0.4h2.5l-0.1-0.4
		c-0.3-0.9-0.7-1.8-1.1-2.9C52.8,29.8,52.5,30.8,52.2,31.5z"/>
	<path d="M65.7,32.7l0.1,1.1c0,0.4,0.1,0.6,0.2,0.9h-1.1c-0.1-0.2-0.2-0.5-0.2-0.9l0-0.7c0-0.5-0.1-0.8-0.3-1
		c-0.2-0.2-0.5-0.3-0.9-0.3h-2v2.9h-1v-7h3c0.7,0,1.3,0.2,1.8,0.5c0.4,0.3,0.6,0.8,0.6,1.4c0,0.4-0.1,0.8-0.3,1.1
		c-0.2,0.3-0.5,0.5-0.9,0.6c0.3,0.1,0.6,0.3,0.7,0.5C65.6,32,65.7,32.3,65.7,32.7z M61.5,30.9h2c0.4,0,0.7-0.1,1-0.3
		c0.2-0.2,0.3-0.5,0.3-0.9c0-0.4-0.1-0.7-0.4-0.8c-0.2-0.2-0.6-0.3-1-0.3h-1.9V30.9z"/>
	<path d="M75.1,27.6v0.9h-3.9v2h3.6v0.9h-3.6v2.2H75v0.9h-4.9v-7H75.1z"/>
	<path d="M93.6,27.6v0.9h-3.9v2h3.6v0.9h-3.6v2.2h3.9v0.9h-4.9v-7H93.6z"/>
	<path d="M102.3,29.7v-2.1h1v7h-1.2l-2.1-3.4c-0.6-1-1.1-1.7-1.4-2.2c0,0.8,0,1.9,0,3.5v2.1h-1v-7h1.2L101,31c0.6,0.9,1,1.7,1.4,2.3
		C102.4,32.5,102.3,31.3,102.3,29.7z"/>
	<path d="M111.1,31.8v-0.9h3v3.7h-0.8l-0.2-0.9c-0.5,0.7-1.3,1.1-2.3,1.1c-1,0-1.8-0.3-2.4-1c-0.6-0.7-0.9-1.5-0.9-2.6
		c0-1.1,0.3-2,0.9-2.6c0.6-0.7,1.4-1,2.5-1c0.9,0,1.6,0.2,2.1,0.7c0.6,0.5,0.9,1,1,1.8h-1.1c-0.1-0.5-0.3-0.8-0.7-1.1
		s-0.8-0.4-1.3-0.4c-0.7,0-1.3,0.2-1.7,0.7c-0.4,0.5-0.6,1.1-0.6,2s0.2,1.5,0.6,2c0.4,0.5,1,0.7,1.7,0.7c0.6,0,1.1-0.2,1.5-0.6
		c0.4-0.4,0.6-0.8,0.7-1.4H111.1z"/>
	<path d="M119.5,34.6h-1v-7h1V34.6z"/>
	<path d="M128.6,29.7v-2.1h1v7h-1.2l-2.1-3.4c-0.6-1-1.1-1.7-1.4-2.2c0,0.8,0,1.9,0,3.5v2.1h-1v-7h1.2l2.2,3.4
		c0.6,0.9,1,1.7,1.4,2.3C128.6,32.5,128.6,31.3,128.6,29.7z"/>
	<path d="M139.1,27.6v0.9h-3.9v2h3.6v0.9h-3.6v2.2h3.9v0.9h-4.9v-7H139.1z"/>
	<path d="M148.1,27.6v0.9h-3.9v2h3.6v0.9h-3.6v2.2h3.9v0.9h-4.9v-7H148.1z"/>
	<path d="M157.5,32.7l0.1,1.1c0,0.4,0.1,0.6,0.2,0.9h-1.1c-0.1-0.2-0.2-0.5-0.2-0.9l0-0.7c0-0.5-0.1-0.8-0.3-1
		c-0.2-0.2-0.5-0.3-0.9-0.3h-2v2.9h-1v-7h3c0.7,0,1.3,0.2,1.8,0.5c0.4,0.3,0.6,0.8,0.6,1.4c0,0.4-0.1,0.8-0.3,1.1
		c-0.2,0.3-0.5,0.5-0.9,0.6c0.3,0.1,0.6,0.3,0.7,0.5C157.4,32,157.5,32.3,157.5,32.7z M153.3,30.9h2c0.4,0,0.7-0.1,1-0.3
		c0.2-0.2,0.3-0.5,0.3-0.9c0-0.4-0.1-0.7-0.4-0.8c-0.2-0.2-0.6-0.3-1-0.3h-1.9V30.9z"/>
</g>
</svg>
